<svg version="1.0" xmlns="http://www.w3.org/2000/svg"
     width="200.000000pt" height="200.000000pt" viewBox="0 0 200.000000 200.000000"
     preserveAspectRatio="xMidYMid meet">

    <g transform="translate(0.000000,200.000000) scale(0.100000,-0.100000)"
       fill="currentColor" stroke="none">
        <path d="M818 1981 c-48 -11 -111 -27 -140 -36 -343 -112 -599 -414 -663 -781
-90 -518 259 -1031 775 -1140 115 -25 307 -25 420 -1 218 47 424 174 565 349
323 405 292 971 -74 1338 -178 179 -411 277 -676 286 -92 3 -140 -1 -207 -15z
m274 -313 c91 -45 124 -178 66 -265 -16 -24 -44 -49 -70 -62 -166 -80 -336 83
-257 246 48 100 157 134 261 81z m-436 -253 c55 -32 83 -80 94 -156 15 -105
73 -136 165 -89 50 25 108 25 165 -1 99 -45 156 -16 169 87 15 126 87 190 202
182 101 -7 172 -83 172 -183 0 -145 -149 -233 -280 -166 -58 29 -89 27 -124
-8 -23 -23 -29 -38 -29 -73 -1 -59 -30 -120 -75 -154 -59 -45 -74 -62 -81 -88
-13 -54 56 -126 123 -126 43 0 80 35 87 84 3 20 9 53 12 73 12 78 127 154 208
139 114 -22 180 -127 152 -237 -30 -115 -153 -170 -265 -119 -56 26 -101 25
-129 0 -22 -21 -27 -34 -36 -102 -13 -99 -76 -159 -175 -166 -110 -8 -186 60
-200 177 -13 107 -65 135 -166 90 -128 -57 -268 30 -269 165 -2 162 182 252
304 150 42 -36 62 -78 71 -149 12 -94 65 -127 145 -89 45 22 64 50 64 95 0 38
-7 47 -78 105 -43 35 -62 73 -72 146 -14 100 -64 128 -155 87 -127 -57 -255 6
-280 138 -13 71 41 169 110 199 50 22 123 17 171 -11z"/>
    </g>
</svg>
