<?xml version="1.0" standalone="no"?>
<!DOCTYPE svg PUBLIC "-//W3C//DTD SVG 20010904//EN"
 "http://www.w3.org/TR/2001/REC-SVG-20010904/DTD/svg10.dtd">
<svg version="1.0" xmlns="http://www.w3.org/2000/svg"
 width="1000.000000pt" height="1000.000000pt" viewBox="0 0 1000.000000 1000.000000"
 preserveAspectRatio="xMidYMid meet">
<metadata>
Created by potrace 1.14, written by Peter Selinger 2001-2017
</metadata>
<g transform="translate(0.000000,1000.000000) scale(0.100000,-0.100000)"
fill="#000000" stroke="none">
<path d="M4865 9994 c-347 -49 -605 -173 -830 -399 -198 -197 -327 -441 -381
-715 -26 -137 -25 -389 4 -525 114 -555 550 -981 1107 -1082 122 -23 360 -22
485 1 557 101 1004 548 1106 1106 23 128 24 362 1 489 -88 482 -432 887 -892
1051 -137 48 -261 70 -425 75 -80 2 -158 1 -175 -1z"/>
<path d="M8040 8179 c-236 -14 -482 -100 -689 -242 -168 -115 -352 -330 -443
-517 -93 -191 -125 -329 -138 -589 -7 -138 -16 -219 -31 -280 -78 -317 -346
-521 -654 -498 -123 9 -212 40 -399 136 -262 136 -433 181 -686 181 -252 0
-407 -40 -672 -175 -103 -52 -223 -105 -265 -117 -102 -29 -269 -31 -358 -4
-214 64 -370 227 -435 456 -16 57 -24 121 -30 265 -10 210 -26 312 -72 449
-160 477 -573 836 -1062 921 -104 18 -343 20 -449 4 -126 -19 -278 -67 -402
-129 -384 -190 -662 -558 -742 -983 -26 -136 -23 -380 5 -514 117 -545 509
-945 1056 -1075 124 -30 427 -32 556 -5 121 26 259 73 348 120 42 22 118 61
168 87 213 109 431 118 624 24 103 -51 221 -169 273 -274 58 -118 76 -207 87
-430 13 -264 49 -418 140 -601 129 -255 309 -441 590 -607 134 -78 251 -197
308 -312 126 -251 81 -525 -120 -732 -110 -113 -343 -250 -493 -288 -95 -24
-254 -27 -335 -5 -171 45 -321 168 -397 325 -60 124 -73 188 -83 405 -10 217
-26 313 -76 457 -73 209 -174 369 -334 528 -194 194 -411 311 -689 373 -129
28 -403 30 -533 4 -273 -55 -518 -186 -713 -382 -200 -199 -329 -444 -381
-720 -28 -146 -25 -384 5 -525 119 -556 542 -967 1106 -1076 61 -11 139 -17
240 -17 257 0 418 43 701 188 122 63 204 98 252 109 89 20 258 21 332 1 166
-44 311 -162 388 -315 63 -126 81 -212 92 -440 13 -276 43 -401 146 -605 183
-368 537 -640 942 -725 210 -45 457 -35 670 26 120 34 330 140 432 217 163
124 321 312 410 488 37 73 95 240 115 331 9 40 20 161 25 268 6 136 15 219 29
275 51 198 173 357 333 433 109 52 162 64 283 63 161 0 227 -22 475 -154 125
-66 244 -109 383 -138 131 -28 367 -31 503 -6 569 103 1018 553 1115 1115 124
726 -332 1410 -1054 1580 -99 23 -133 26 -292 27 -153 0 -196 -3 -285 -23
-493 -110 -868 -444 -1025 -915 -44 -130 -63 -252 -71 -447 -3 -97 -13 -187
-25 -240 -50 -217 -188 -383 -384 -462 -78 -32 -84 -33 -230 -33 -163 0 -205
10 -339 76 -241 120 -374 237 -457 404 -118 238 -78 498 109 705 61 68 111
106 246 188 302 184 502 427 614 744 48 134 63 227 72 428 12 256 38 363 120
494 155 245 456 345 745 248 50 -16 144 -60 210 -96 147 -80 267 -127 405
-158 89 -20 133 -23 290 -23 157 0 201 3 290 23 438 98 794 392 971 801 75
175 109 343 109 543 0 371 -142 713 -404 973 -108 108 -197 172 -336 244 -238
122 -449 165 -730 150z"/>
</g>
</svg>
