<svg width="2000" height="329" viewBox="0 0 2000 329" fill="none" xmlns="http://www.w3.org/2000/svg">
<path d="M363.017 287.394V45.2319H464.077C481.978 45.2319 497.276 48.0079 509.644 53.5598C522.012 59.1117 531.451 66.7865 537.797 76.584C544.144 86.3815 547.236 97.8119 547.236 110.875C547.236 120.999 545.446 129.98 541.703 138.145C537.96 146.31 532.427 153.005 524.941 158.557C517.455 164.108 508.505 167.864 497.764 169.987V172.11C505.901 174.069 512.736 177.335 518.269 181.907C523.802 186.479 528.359 192.031 531.939 198.4C535.682 204.931 538.937 212.77 541.866 222.24L562.534 287.231H511.108L492.882 229.425C490.278 220.118 487.186 212.933 483.606 207.707C480.025 202.482 475.469 198.726 469.61 196.44C463.752 194.154 456.266 192.848 446.827 192.848H413.303V287.067H363.017V287.394ZM455.452 154.148C463.914 154.148 471.237 152.841 477.584 150.392C483.768 147.943 488.65 144.024 492.068 138.798C495.485 133.573 497.276 127.041 497.276 119.53C497.276 111.855 495.485 105.487 492.068 100.425C488.65 95.3626 483.768 91.6069 477.584 89.3208C471.4 87.0347 463.914 85.7283 455.452 85.7283H413.303V154.311H455.452V154.148Z" fill="currentColor"/>
<path d="M662.129 291.476C643.903 291.476 627.466 287.394 612.82 279.392C598.01 271.391 586.456 259.961 577.994 245.264C569.531 230.568 565.3 213.749 565.3 194.807C565.3 176.029 569.531 159.21 577.831 144.513C586.131 129.817 597.848 118.223 612.494 110.059C627.303 101.731 643.903 97.6484 662.455 97.6484C681.007 97.6484 697.606 101.731 712.253 110.059C726.899 118.223 738.453 129.817 746.753 144.513C755.053 159.21 759.284 176.029 759.284 194.97C759.284 213.749 755.053 230.568 746.59 245.264C738.128 259.961 726.574 271.391 711.927 279.556C697.118 287.394 680.519 291.476 662.129 291.476ZM662.129 251.143C671.405 251.143 679.705 248.857 687.028 244.285C694.351 239.712 700.21 233.181 704.604 224.69C708.835 216.198 711.113 206.238 711.113 194.807C711.113 183.54 708.998 173.579 704.767 164.925C700.536 156.434 694.677 149.739 687.354 145.166C680.03 140.594 671.568 138.145 662.292 138.145C653.016 138.145 644.716 140.431 637.393 145.166C630.07 149.739 624.211 156.434 619.98 164.925C615.749 173.416 613.633 183.54 613.633 194.97C613.633 206.238 615.749 216.198 620.143 224.69C624.374 233.181 630.233 239.712 637.556 244.285C644.554 248.857 652.853 251.143 662.129 251.143Z" fill="currentColor"/>
<path d="M869.783 291.476C851.557 291.476 835.12 287.394 820.474 279.392C805.664 271.391 794.11 259.961 785.648 245.264C777.185 230.568 772.954 213.749 772.954 194.807C772.954 176.029 777.185 159.21 785.485 144.513C793.785 129.817 805.502 118.223 820.148 110.059C834.957 101.731 851.557 97.6484 870.109 97.6484C888.661 97.6484 905.26 101.731 919.907 110.059C934.553 118.223 946.108 129.817 954.407 144.513C962.707 159.21 966.938 176.029 966.938 194.97C966.938 213.749 962.707 230.568 954.244 245.264C945.782 259.961 934.228 271.391 919.581 279.556C904.772 287.394 888.173 291.476 869.783 291.476ZM869.783 251.143C879.059 251.143 887.359 248.857 894.682 244.285C902.006 239.712 907.864 233.181 912.258 224.69C916.489 216.198 918.768 206.238 918.768 194.807C918.768 183.54 916.652 173.579 912.421 164.925C908.189 156.434 902.331 149.739 895.008 145.166C887.685 140.594 879.222 138.145 869.946 138.145C860.67 138.145 852.37 140.431 845.047 145.166C837.724 149.739 831.865 156.434 827.634 164.925C823.403 173.416 821.287 183.54 821.287 194.97C821.287 206.238 823.403 216.198 827.797 224.69C832.028 233.181 837.887 239.712 845.21 244.285C852.208 248.857 860.507 251.143 869.783 251.143Z" fill="currentColor"/>
<path d="M1066.21 290.333C1050.75 290.333 1038.38 287.884 1029.43 282.985C1020.32 278.086 1013.97 271.391 1010.39 263.226C1006.65 254.899 1004.86 245.101 1004.86 233.834V139.288H972.146V101.241H1004.86V54.7026H1052.54V101.241H1095.5V139.125H1052.54V231.221C1052.54 237.59 1054.49 242.488 1058.4 245.918C1062.3 249.347 1068.65 250.98 1077.44 250.98C1082.97 250.98 1088.83 250.326 1095.01 249.183V285.761C1086.06 288.863 1076.46 290.333 1066.21 290.333Z" fill="currentColor"/>
<path d="M1185.98 291.64C1165.48 291.64 1148.39 287.067 1134.72 277.923C1121.05 268.779 1111.77 255.715 1106.89 238.57L1145.95 225.343C1149.2 234.977 1154.25 242.489 1160.92 247.714C1167.59 252.939 1175.89 255.552 1185.5 255.552C1195.26 255.552 1202.58 253.756 1207.63 250.327C1212.67 246.898 1215.11 242.162 1215.11 236.61C1215.11 232.038 1213.97 228.282 1211.7 225.67C1209.42 222.894 1205.51 220.608 1200.14 218.485C1194.77 216.525 1186.96 214.402 1177.03 212.116C1161.41 208.687 1149.04 204.768 1140.09 200.359C1131.14 195.95 1124.47 190.398 1120.24 183.377C1116.01 176.355 1113.73 167.701 1113.73 156.924C1113.73 145.003 1116.82 134.716 1122.84 125.735C1128.86 116.754 1137.49 109.896 1148.88 104.833C1160.27 99.9347 1173.29 97.4854 1188.1 97.4854C1201.12 97.4854 1212.67 99.2816 1222.76 103.037C1232.85 106.793 1240.99 112.345 1247.5 119.693C1254.01 127.041 1258.56 136.022 1261.01 146.473L1222.27 159.536C1219.51 151.372 1215.11 145.003 1209.42 140.268C1203.56 135.696 1196.56 133.246 1188.42 133.246C1182.73 133.246 1177.85 133.899 1173.62 135.369C1169.38 136.839 1166.13 138.962 1163.85 141.737C1161.57 144.513 1160.43 147.779 1160.43 151.535C1160.43 155.781 1161.41 159.21 1163.53 161.659C1165.48 164.108 1169.22 166.231 1174.43 168.027C1179.64 169.824 1187.29 171.783 1197.21 173.906C1213.65 177.498 1226.67 181.417 1235.94 185.826C1245.22 190.072 1252.22 195.787 1256.61 202.645C1261.01 209.667 1263.28 218.485 1263.28 229.589C1263.28 242.162 1260.35 252.939 1254.33 262.247C1248.31 271.391 1239.52 278.576 1227.97 283.801C1216.42 289.027 1202.42 291.64 1185.98 291.64Z" fill="currentColor"/>
<path d="M1363.86 290.333C1348.4 290.333 1336.03 287.884 1327.08 282.985C1317.96 278.086 1311.62 271.391 1308.04 263.226C1304.29 254.899 1302.5 245.101 1302.5 233.834V139.288H1269.79V101.241H1302.5V54.7026H1350.19V101.241H1393.15V139.125H1350.19V231.221C1350.19 237.59 1352.14 242.488 1356.05 245.918C1359.95 249.347 1366.3 250.98 1375.09 250.98C1380.62 250.98 1386.48 250.326 1392.66 249.183V285.761C1383.71 288.863 1374.11 290.333 1363.86 290.333Z" fill="currentColor"/>
<path d="M1501.53 291.476C1483.31 291.476 1466.87 287.394 1452.22 279.392C1437.41 271.391 1425.86 259.961 1417.4 245.264C1408.93 230.568 1404.7 213.749 1404.7 194.807C1404.7 176.029 1408.93 159.21 1417.23 144.513C1425.53 129.817 1437.25 118.223 1451.9 110.059C1466.71 101.731 1483.31 97.6484 1501.86 97.6484C1520.41 97.6484 1537.01 101.731 1551.66 110.059C1566.3 118.223 1577.86 129.817 1586.16 144.513C1594.46 159.21 1598.69 176.029 1598.69 194.97C1598.69 213.749 1594.46 230.568 1585.99 245.264C1577.53 259.961 1565.98 271.391 1551.33 279.556C1536.52 287.394 1520.08 291.476 1501.53 291.476ZM1501.53 251.143C1510.81 251.143 1519.11 248.857 1526.43 244.285C1533.76 239.712 1539.61 233.181 1544.01 224.69C1548.24 216.198 1550.52 206.238 1550.52 194.807C1550.52 183.54 1548.4 173.579 1544.17 164.925C1539.94 156.434 1534.08 149.739 1526.76 145.166C1519.43 140.594 1510.97 138.145 1501.7 138.145C1492.42 138.145 1484.12 140.431 1476.8 145.166C1469.47 149.739 1463.61 156.434 1459.38 164.925C1455.15 173.416 1453.04 183.54 1453.04 194.97C1453.04 206.238 1455.15 216.198 1459.55 224.69C1463.78 233.181 1469.64 239.712 1476.96 244.285C1484.12 248.857 1492.26 251.143 1501.53 251.143Z" fill="currentColor"/>
<path d="M1713.42 291.64C1696.17 291.64 1680.22 288.047 1665.57 280.699C1650.76 273.351 1639.05 262.41 1630.1 247.877C1621.15 233.344 1616.75 215.872 1616.75 195.624C1616.75 175.539 1620.98 158.23 1629.61 143.371C1638.23 128.511 1649.79 117.244 1664.43 109.243C1679.08 101.241 1695.35 97.3223 1713.09 97.3223C1727.74 97.3223 1740.92 100.098 1752.64 105.65C1764.36 111.202 1774.28 118.714 1782.09 128.348C1789.91 137.982 1795.6 148.923 1798.86 161.169L1757.68 173.09C1755.73 166.231 1752.64 160.19 1748.73 154.964C1744.83 149.739 1739.94 145.493 1734.25 142.391C1728.55 139.288 1721.88 137.819 1714.56 137.819C1704.79 137.819 1696.01 140.268 1688.36 145.004C1680.71 149.739 1674.69 156.434 1670.46 165.088C1666.22 173.743 1663.95 183.704 1663.95 194.808C1663.95 206.401 1666.22 216.362 1670.78 224.853C1675.34 233.344 1681.52 239.876 1689.17 244.285C1696.82 248.694 1705.12 250.98 1714.23 250.98C1721.56 250.98 1728.06 249.51 1733.92 246.571C1739.78 243.632 1744.66 239.55 1748.73 234.651C1752.8 229.589 1755.89 224.037 1758.01 217.995L1799.02 230.242C1796.09 241.182 1790.88 251.307 1783.4 260.778C1775.91 270.085 1766.15 277.597 1754.1 283.312C1742.22 288.7 1728.72 291.64 1713.42 291.64Z" fill="currentColor"/>
<path d="M1822.29 287.394V45.2319H1869.97V175.539L1944.83 101.241H2000L1920.26 178.641L1999.51 287.394H1943.86L1886.41 207.707L1869.81 223.383V287.394H1822.29Z" fill="currentColor"/>
<path d="M147.714 90.1372C172.52 90.1372 192.63 69.9593 192.63 45.0686C192.63 20.1779 172.52 0 147.714 0C122.908 0 102.798 20.1779 102.798 45.0686C102.798 69.9593 122.908 90.1372 147.714 90.1372Z" fill="currentColor"/>
<path d="M272.534 184.357C251.053 171.947 223.55 179.295 211.182 200.849C206.951 208.197 204.998 216.362 205.161 224.363C205.649 244.285 187.748 254.572 170.823 244.285C170.172 243.958 169.521 243.468 168.707 243.142C151.62 233.508 151.62 213.096 168.707 203.625C182.703 195.951 192.304 181.091 192.304 163.945C192.304 163.619 192.304 163.292 192.304 162.966C191.816 143.044 209.717 132.757 226.642 143.044C240.149 151.372 257.725 152.025 272.371 143.534C293.853 131.124 301.176 103.527 288.808 81.9728C276.44 60.4182 248.937 53.0701 227.456 65.4803C212.809 73.9715 204.672 89.6475 204.998 105.487C205.486 125.408 187.585 135.696 170.823 125.408C163.988 121.163 156.014 118.713 147.389 118.713C138.763 118.713 130.789 121.163 123.954 125.245C107.029 135.369 89.291 125.082 89.7792 105.324C90.1047 89.3209 81.9678 73.8082 67.3213 65.317C45.8399 52.9068 18.3371 60.4182 5.96904 81.9728C-6.39906 103.527 1.08689 131.124 22.5683 143.534C37.2148 152.025 54.7905 151.209 68.2978 143.044C85.2225 132.757 102.961 143.044 102.473 162.966C102.473 163.292 102.473 163.619 102.473 163.945C102.473 181.091 111.912 195.951 126.07 203.625C143.157 213.259 143.157 233.671 126.07 243.142C125.419 243.468 124.768 243.958 124.117 244.285C107.192 254.409 89.4537 244.122 89.9419 224.363C90.1047 216.362 88.1518 208.197 83.9206 200.686C71.5525 179.131 44.0498 171.783 22.5683 184.194C1.08689 196.93 -6.23633 224.527 6.13178 246.081C18.4999 267.636 46.0026 274.984 67.4841 262.574C67.8095 262.41 67.9723 262.247 68.2978 262.084C85.2225 251.796 102.961 262.084 102.473 282.005C102.473 282.332 102.473 282.659 102.473 283.148C102.473 307.969 122.652 328.217 147.389 328.217C172.125 328.217 192.304 307.969 192.304 283.148C192.304 282.822 192.304 282.495 192.304 282.169C191.816 262.247 209.717 251.96 226.642 262.247C226.967 262.41 227.293 262.574 227.618 262.9C249.1 275.31 276.603 267.962 288.971 246.408C301.339 224.363 294.016 196.767 272.534 184.357Z" fill="currentColor"/>
</svg>
